<mxfile host="app.diagrams.net" modified="2024-06-12T11:32:27.283Z" agent="Mozilla/5.0 (X11; Linux x86_64) AppleWebKit/537.36 (KHTML, like Gecko) Chrome/125.0.0.0 Safari/537.36" etag="ElIv3TwumUKhyFLsmKjW" version="24.5.3" type="github" pages="2">
  <diagram name="Video Pipelines" id="6-lmW0DENHbqFQVKjy48">
    <mxGraphModel dx="2844" dy="1518" grid="1" gridSize="10" guides="1" tooltips="1" connect="1" arrows="1" fold="1" page="1" pageScale="1" pageWidth="850" pageHeight="1100" math="0" shadow="0">
      <root>
        <mxCell id="0" />
        <mxCell id="1" parent="0" />
        <mxCell id="lLXELXfUWVYyEncKYgsI-1" value="1920x1080@30fps Yuv422 camera 1" style="rounded=0;whiteSpace=wrap;html=1;" vertex="1" parent="1">
          <mxGeometry x="30" y="110" width="120" height="60" as="geometry" />
        </mxCell>
        <mxCell id="lLXELXfUWVYyEncKYgsI-78" style="edgeStyle=orthogonalEdgeStyle;rounded=0;orthogonalLoop=1;jettySize=auto;html=1;exitX=1;exitY=0.75;exitDx=0;exitDy=0;entryX=0;entryY=0.75;entryDx=0;entryDy=0;" edge="1" parent="1" source="lLXELXfUWVYyEncKYgsI-57">
          <mxGeometry relative="1" as="geometry">
            <mxPoint x="1230" y="2150" as="targetPoint" />
          </mxGeometry>
        </mxCell>
        <mxCell id="lLXELXfUWVYyEncKYgsI-3" value="" style="shape=mxgraph.signs.tech.video_camera;html=1;pointerEvents=1;fillColor=#000000;strokeColor=none;verticalLabelPosition=bottom;verticalAlign=top;align=center;" vertex="1" parent="1">
          <mxGeometry x="52" y="180" width="98" height="40" as="geometry" />
        </mxCell>
        <mxCell id="lLXELXfUWVYyEncKYgsI-4" value="HLS PARALLEL&amp;nbsp;&lt;div&gt;VIDEO CAPTURE&lt;/div&gt;" style="rounded=0;whiteSpace=wrap;html=1;fillColor=#d5e8d4;strokeColor=#82b366;" vertex="1" parent="1">
          <mxGeometry x="260" y="170" width="120" height="60" as="geometry" />
        </mxCell>
        <mxCell id="lLXELXfUWVYyEncKYgsI-5" value="HLS VIDEO CROP" style="rounded=0;whiteSpace=wrap;html=1;fillColor=#d5e8d4;strokeColor=#82b366;" vertex="1" parent="1">
          <mxGeometry x="448" y="170" width="120" height="60" as="geometry" />
        </mxCell>
        <mxCell id="lLXELXfUWVYyEncKYgsI-8" value="HLS VIDEO BROADCASTER" style="rounded=0;whiteSpace=wrap;html=1;fillColor=#d5e8d4;strokeColor=#82b366;" vertex="1" parent="1">
          <mxGeometry x="650" y="170" width="120" height="60" as="geometry" />
        </mxCell>
        <mxCell id="lLXELXfUWVYyEncKYgsI-9" value="PIPELINE 0&lt;div&gt;VIDEO FRAMEBUFFER WRITE&lt;/div&gt;" style="rounded=0;whiteSpace=wrap;html=1;fillColor=#fff2cc;strokeColor=#d6b656;" vertex="1" parent="1">
          <mxGeometry x="880" y="20" width="130" height="60" as="geometry" />
        </mxCell>
        <mxCell id="lLXELXfUWVYyEncKYgsI-10" value="AXI INTERCONNECT" style="rounded=0;whiteSpace=wrap;html=1;" vertex="1" parent="1">
          <mxGeometry x="1049.5" y="1755" width="130" height="120" as="geometry" />
        </mxCell>
        <mxCell id="lLXELXfUWVYyEncKYgsI-17" value="" style="shape=mxgraph.signs.tech.video_camera;html=1;pointerEvents=1;fillColor=#000000;strokeColor=none;verticalLabelPosition=bottom;verticalAlign=top;align=center;" vertex="1" parent="1">
          <mxGeometry x="30" y="1635" width="98" height="40" as="geometry" />
        </mxCell>
        <mxCell id="lLXELXfUWVYyEncKYgsI-19" value="PARALLEL&amp;nbsp;&lt;div&gt;VIDEO CAPTURE&lt;/div&gt;" style="rounded=0;whiteSpace=wrap;html=1;" vertex="1" parent="1">
          <mxGeometry x="249" y="1625" width="120" height="60" as="geometry" />
        </mxCell>
        <mxCell id="lLXELXfUWVYyEncKYgsI-21" value="VIDEO CROP" style="rounded=0;whiteSpace=wrap;html=1;" vertex="1" parent="1">
          <mxGeometry x="439" y="1625" width="120" height="60" as="geometry" />
        </mxCell>
        <mxCell id="lLXELXfUWVYyEncKYgsI-76" style="edgeStyle=orthogonalEdgeStyle;rounded=0;orthogonalLoop=1;jettySize=auto;html=1;exitX=1;exitY=0.75;exitDx=0;exitDy=0;entryX=0;entryY=0.25;entryDx=0;entryDy=0;" edge="1" parent="1" source="lLXELXfUWVYyEncKYgsI-23">
          <mxGeometry relative="1" as="geometry">
            <mxPoint x="843.5" y="1560" as="targetPoint" />
          </mxGeometry>
        </mxCell>
        <mxCell id="lLXELXfUWVYyEncKYgsI-23" value="VIDEO BROADCASTER" style="rounded=0;whiteSpace=wrap;html=1;" vertex="1" parent="1">
          <mxGeometry x="639" y="1625" width="120" height="60" as="geometry" />
        </mxCell>
        <mxCell id="lLXELXfUWVYyEncKYgsI-24" value="VIDEO FRAMEBUFFER WRITE" style="rounded=0;whiteSpace=wrap;html=1;" vertex="1" parent="1">
          <mxGeometry x="843.5" y="1655" width="120" height="60" as="geometry" />
        </mxCell>
        <mxCell id="lLXELXfUWVYyEncKYgsI-27" value="" style="shape=mxgraph.signs.tech.video_camera;html=1;pointerEvents=1;fillColor=#000000;strokeColor=none;verticalLabelPosition=bottom;verticalAlign=top;align=center;" vertex="1" parent="1">
          <mxGeometry x="30.5" y="1745" width="98" height="40" as="geometry" />
        </mxCell>
        <mxCell id="lLXELXfUWVYyEncKYgsI-29" value="PARALLEL&amp;nbsp;&lt;div&gt;VIDEO CAPTURE&lt;/div&gt;" style="rounded=0;whiteSpace=wrap;html=1;" vertex="1" parent="1">
          <mxGeometry x="249.5" y="1735" width="120" height="60" as="geometry" />
        </mxCell>
        <mxCell id="lLXELXfUWVYyEncKYgsI-31" value="VIDEO CROP" style="rounded=0;whiteSpace=wrap;html=1;" vertex="1" parent="1">
          <mxGeometry x="439.5" y="1735" width="120" height="60" as="geometry" />
        </mxCell>
        <mxCell id="lLXELXfUWVYyEncKYgsI-77" style="edgeStyle=orthogonalEdgeStyle;rounded=0;orthogonalLoop=1;jettySize=auto;html=1;exitX=1;exitY=0.75;exitDx=0;exitDy=0;entryX=0;entryY=0.25;entryDx=0;entryDy=0;" edge="1" parent="1" source="lLXELXfUWVYyEncKYgsI-33">
          <mxGeometry relative="1" as="geometry">
            <mxPoint x="1030" y="2190" as="targetPoint" />
          </mxGeometry>
        </mxCell>
        <mxCell id="lLXELXfUWVYyEncKYgsI-33" value="VIDEO BROADCASTER" style="rounded=0;whiteSpace=wrap;html=1;" vertex="1" parent="1">
          <mxGeometry x="639.5" y="1735" width="120" height="60" as="geometry" />
        </mxCell>
        <mxCell id="lLXELXfUWVYyEncKYgsI-34" value="VIDEO FRAMEBUFFER WRITE" style="rounded=0;whiteSpace=wrap;html=1;" vertex="1" parent="1">
          <mxGeometry x="839.5" y="1735" width="120" height="60" as="geometry" />
        </mxCell>
        <mxCell id="lLXELXfUWVYyEncKYgsI-53" value="VIDEO ENCODING UNIT" style="rounded=0;whiteSpace=wrap;html=1;" vertex="1" parent="1">
          <mxGeometry x="1309.5" y="1480" width="130" height="120" as="geometry" />
        </mxCell>
        <mxCell id="lLXELXfUWVYyEncKYgsI-54" value="" style="shape=mxgraph.signs.tech.video_camera;html=1;pointerEvents=1;fillColor=#000000;strokeColor=none;verticalLabelPosition=bottom;verticalAlign=top;align=center;" vertex="1" parent="1">
          <mxGeometry x="30" y="1865" width="98" height="40" as="geometry" />
        </mxCell>
        <mxCell id="lLXELXfUWVYyEncKYgsI-55" value="PARALLEL&amp;nbsp;&lt;div&gt;VIDEO CAPTURE&lt;/div&gt;" style="rounded=0;whiteSpace=wrap;html=1;" vertex="1" parent="1">
          <mxGeometry x="249" y="1855" width="120" height="60" as="geometry" />
        </mxCell>
        <mxCell id="lLXELXfUWVYyEncKYgsI-56" value="VIDEO CROP" style="rounded=0;whiteSpace=wrap;html=1;" vertex="1" parent="1">
          <mxGeometry x="439" y="1855" width="120" height="60" as="geometry" />
        </mxCell>
        <mxCell id="lLXELXfUWVYyEncKYgsI-57" value="VIDEO BROADCASTER" style="rounded=0;whiteSpace=wrap;html=1;" vertex="1" parent="1">
          <mxGeometry x="639" y="1855" width="120" height="60" as="geometry" />
        </mxCell>
        <mxCell id="lLXELXfUWVYyEncKYgsI-58" value="VIDEO FRAMEBUFFER WRITE" style="rounded=0;whiteSpace=wrap;html=1;" vertex="1" parent="1">
          <mxGeometry x="839" y="1855" width="120" height="60" as="geometry" />
        </mxCell>
        <mxCell id="lLXELXfUWVYyEncKYgsI-59" value="" style="shape=mxgraph.signs.tech.video_camera;html=1;pointerEvents=1;fillColor=#000000;strokeColor=none;verticalLabelPosition=bottom;verticalAlign=top;align=center;" vertex="1" parent="1">
          <mxGeometry x="34.5" y="1995" width="98" height="40" as="geometry" />
        </mxCell>
        <mxCell id="lLXELXfUWVYyEncKYgsI-60" value="PARALLEL&amp;nbsp;&lt;div&gt;VIDEO CAPTURE&lt;/div&gt;" style="rounded=0;whiteSpace=wrap;html=1;" vertex="1" parent="1">
          <mxGeometry x="253.5" y="1985" width="120" height="60" as="geometry" />
        </mxCell>
        <mxCell id="lLXELXfUWVYyEncKYgsI-61" value="VIDEO CROP" style="rounded=0;whiteSpace=wrap;html=1;" vertex="1" parent="1">
          <mxGeometry x="443.5" y="1985" width="120" height="60" as="geometry" />
        </mxCell>
        <mxCell id="lLXELXfUWVYyEncKYgsI-62" value="VIDEO BROADCASTER" style="rounded=0;whiteSpace=wrap;html=1;" vertex="1" parent="1">
          <mxGeometry x="643.5" y="1985" width="120" height="60" as="geometry" />
        </mxCell>
        <mxCell id="lLXELXfUWVYyEncKYgsI-63" value="VIDEO FRAMEBUFFER WRITE" style="rounded=0;whiteSpace=wrap;html=1;" vertex="1" parent="1">
          <mxGeometry x="843.5" y="1985" width="120" height="60" as="geometry" />
        </mxCell>
        <mxCell id="lLXELXfUWVYyEncKYgsI-64" value="" style="shape=mxgraph.signs.tech.video_camera;html=1;pointerEvents=1;fillColor=#000000;strokeColor=none;verticalLabelPosition=bottom;verticalAlign=top;align=center;" vertex="1" parent="1">
          <mxGeometry x="39" y="2115" width="98" height="40" as="geometry" />
        </mxCell>
        <mxCell id="lLXELXfUWVYyEncKYgsI-65" value="PARALLEL&amp;nbsp;&lt;div&gt;VIDEO CAPTURE&lt;/div&gt;" style="rounded=0;whiteSpace=wrap;html=1;" vertex="1" parent="1">
          <mxGeometry x="258" y="2105" width="120" height="60" as="geometry" />
        </mxCell>
        <mxCell id="lLXELXfUWVYyEncKYgsI-66" value="VIDEO CROP" style="rounded=0;whiteSpace=wrap;html=1;" vertex="1" parent="1">
          <mxGeometry x="448" y="2105" width="120" height="60" as="geometry" />
        </mxCell>
        <mxCell id="lLXELXfUWVYyEncKYgsI-67" value="VIDEO BROADCASTER" style="rounded=0;whiteSpace=wrap;html=1;" vertex="1" parent="1">
          <mxGeometry x="648" y="2105" width="120" height="60" as="geometry" />
        </mxCell>
        <mxCell id="lLXELXfUWVYyEncKYgsI-68" value="VIDEO FRAMEBUFFER WRITE" style="rounded=0;whiteSpace=wrap;html=1;" vertex="1" parent="1">
          <mxGeometry x="848" y="2105" width="120" height="60" as="geometry" />
        </mxCell>
        <mxCell id="lLXELXfUWVYyEncKYgsI-69" value="PIPELINE 0&lt;div&gt;VIDEO DMA&lt;/div&gt;" style="rounded=0;whiteSpace=wrap;html=1;fillColor=#d5e8d4;strokeColor=#82b366;" vertex="1" parent="1">
          <mxGeometry x="880" y="110" width="130" height="60" as="geometry" />
        </mxCell>
        <mxCell id="lLXELXfUWVYyEncKYgsI-70" value="VIDEO DMA" style="rounded=0;whiteSpace=wrap;html=1;" vertex="1" parent="1">
          <mxGeometry x="1430" y="1685" width="120" height="60" as="geometry" />
        </mxCell>
        <mxCell id="lLXELXfUWVYyEncKYgsI-71" value="VIDEO DMA" style="rounded=0;whiteSpace=wrap;html=1;" vertex="1" parent="1">
          <mxGeometry x="1500" y="1635" width="120" height="60" as="geometry" />
        </mxCell>
        <mxCell id="lLXELXfUWVYyEncKYgsI-72" value="VIDEO DMA" style="rounded=0;whiteSpace=wrap;html=1;" vertex="1" parent="1">
          <mxGeometry x="1230" y="1830" width="120" height="60" as="geometry" />
        </mxCell>
        <mxCell id="lLXELXfUWVYyEncKYgsI-73" value="VIDEO DMA" style="rounded=0;whiteSpace=wrap;html=1;" vertex="1" parent="1">
          <mxGeometry x="1030" y="1520" width="120" height="60" as="geometry" />
        </mxCell>
        <mxCell id="lLXELXfUWVYyEncKYgsI-74" value="VIDEO DMA" style="rounded=0;whiteSpace=wrap;html=1;" vertex="1" parent="1">
          <mxGeometry x="1580" y="1470" width="120" height="60" as="geometry" />
        </mxCell>
        <mxCell id="lLXELXfUWVYyEncKYgsI-93" value="PIPELINE 0&lt;div&gt;HLS RFC4175 PACKETIZER&lt;/div&gt;" style="rounded=0;whiteSpace=wrap;html=1;fillColor=#d5e8d4;strokeColor=#82b366;" vertex="1" parent="1">
          <mxGeometry x="880" y="220" width="130" height="60" as="geometry" />
        </mxCell>
        <mxCell id="lLXELXfUWVYyEncKYgsI-94" value="PIPELINE 0&lt;div&gt;HD SDI&lt;/div&gt;&lt;div&gt;PACKETIZER&lt;/div&gt;" style="rounded=0;whiteSpace=wrap;html=1;fillColor=#d5e8d4;strokeColor=#82b366;" vertex="1" parent="1">
          <mxGeometry x="880" y="320" width="130" height="60" as="geometry" />
        </mxCell>
        <mxCell id="lLXELXfUWVYyEncKYgsI-99" value="" style="strokeWidth=2;html=1;shape=stencil(rVXLbsMgEPwarhWGumqOEU2PvfTQM3FojRKDhWnS/n0xG6t+x8FIltDOmpmdZRGIsirnpUAEK14IRF8QIVultOVWauVg4gC35JDaPEN4gTDBGGJelSKzAJ65kXx/EpCprNFHcZEHe6WQKhdG2jpLdwhv3T/1R1mmlXIkTrbqZFp5R8alcnvxD5DhhxRkfq8xRKVTKIQVpoP+O3wDAJHXYKVkmdJ7gFLXUaN7S+njfqUkTGm3WmnhKa0WWnpIE0KUOWRqLCnb8+z4ZfS3OoyWV/J65AeJJl3os2jVjfFYi8atNxQnqVoUaWwGGkDR9xHCEaGMHsVTBCchHBHK6FFsIjiZ5/BDP5hdj04MPGWf2oiZmwBvwIziXVela+YxXd3TeYrxfty05rcN+uJReHE98Ac=);align=left;labelPosition=right;pointerEvents=1;fillStyle=auto;" vertex="1" parent="1">
          <mxGeometry x="800" y="40" width="50" height="340" as="geometry" />
        </mxCell>
        <mxCell id="lLXELXfUWVYyEncKYgsI-110" value="1920x1080@30fps Yuv422 camera 2" style="rounded=0;whiteSpace=wrap;html=1;" vertex="1" parent="1">
          <mxGeometry x="30" y="530" width="120" height="60" as="geometry" />
        </mxCell>
        <mxCell id="lLXELXfUWVYyEncKYgsI-111" value="" style="shape=mxgraph.signs.tech.video_camera;html=1;pointerEvents=1;fillColor=#000000;strokeColor=none;verticalLabelPosition=bottom;verticalAlign=top;align=center;" vertex="1" parent="1">
          <mxGeometry x="52" y="600" width="98" height="40" as="geometry" />
        </mxCell>
        <mxCell id="lLXELXfUWVYyEncKYgsI-112" value="HLS PARALLEL&amp;nbsp;&lt;div&gt;VIDEO CAPTURE&lt;/div&gt;" style="rounded=0;whiteSpace=wrap;html=1;fillColor=#d5e8d4;strokeColor=#82b366;" vertex="1" parent="1">
          <mxGeometry x="260" y="590" width="120" height="60" as="geometry" />
        </mxCell>
        <mxCell id="lLXELXfUWVYyEncKYgsI-113" value="HLS VIDEO CROP" style="rounded=0;whiteSpace=wrap;html=1;fillColor=#d5e8d4;strokeColor=#82b366;" vertex="1" parent="1">
          <mxGeometry x="448" y="590" width="120" height="60" as="geometry" />
        </mxCell>
        <mxCell id="lLXELXfUWVYyEncKYgsI-114" value="HLS VIDEO BROADCASTER" style="rounded=0;whiteSpace=wrap;html=1;fillColor=#d5e8d4;strokeColor=#82b366;" vertex="1" parent="1">
          <mxGeometry x="650" y="590" width="120" height="60" as="geometry" />
        </mxCell>
        <mxCell id="lLXELXfUWVYyEncKYgsI-115" value="PIPELINE 1&lt;div&gt;VIDEO FRAMEBUFFER WRITE&lt;/div&gt;" style="rounded=0;whiteSpace=wrap;html=1;fillColor=#fff2cc;strokeColor=#d6b656;" vertex="1" parent="1">
          <mxGeometry x="880" y="440" width="130" height="60" as="geometry" />
        </mxCell>
        <mxCell id="lLXELXfUWVYyEncKYgsI-116" value="PIPELINE 1&lt;div&gt;VIDEO DMA&lt;/div&gt;" style="rounded=0;whiteSpace=wrap;html=1;fillColor=#d5e8d4;strokeColor=#82b366;" vertex="1" parent="1">
          <mxGeometry x="880" y="530" width="130" height="60" as="geometry" />
        </mxCell>
        <mxCell id="lLXELXfUWVYyEncKYgsI-117" value="PIPELINE 1&lt;div&gt;HLS RFC4175 PACKETIZER&lt;/div&gt;" style="rounded=0;whiteSpace=wrap;html=1;fillColor=#d5e8d4;strokeColor=#82b366;" vertex="1" parent="1">
          <mxGeometry x="880" y="640" width="130" height="60" as="geometry" />
        </mxCell>
        <mxCell id="lLXELXfUWVYyEncKYgsI-118" value="PIPELINE 1&lt;div&gt;HD SDI&lt;/div&gt;&lt;div&gt;PACKETIZER&lt;/div&gt;" style="rounded=0;whiteSpace=wrap;html=1;fillColor=#d5e8d4;strokeColor=#82b366;" vertex="1" parent="1">
          <mxGeometry x="880" y="740" width="130" height="60" as="geometry" />
        </mxCell>
        <mxCell id="lLXELXfUWVYyEncKYgsI-119" value="" style="strokeWidth=2;html=1;shape=stencil(rVXLbsMgEPwarhWGumqOEU2PvfTQM3FojRKDhWnS/n0xG6t+x8FIltDOmpmdZRGIsirnpUAEK14IRF8QIVultOVWauVg4gC35JDaPEN4gTDBGGJelSKzAJ65kXx/EpCprNFHcZEHe6WQKhdG2jpLdwhv3T/1R1mmlXIkTrbqZFp5R8alcnvxD5DhhxRkfq8xRKVTKIQVpoP+O3wDAJHXYKVkmdJ7gFLXUaN7S+njfqUkTGm3WmnhKa0WWnpIE0KUOWRqLCnb8+z4ZfS3OoyWV/J65AeJJl3os2jVjfFYi8atNxQnqVoUaWwGGkDR9xHCEaGMHsVTBCchHBHK6FFsIjiZ5/BDP5hdj04MPGWf2oiZmwBvwIziXVela+YxXd3TeYrxfty05rcN+uJReHE98Ac=);align=left;labelPosition=right;pointerEvents=1;fillStyle=auto;" vertex="1" parent="1">
          <mxGeometry x="800" y="460" width="50" height="340" as="geometry" />
        </mxCell>
        <mxCell id="lLXELXfUWVYyEncKYgsI-120" value="1920x1080@30fps Yuv422 camera 3" style="rounded=0;whiteSpace=wrap;html=1;" vertex="1" parent="1">
          <mxGeometry x="30" y="940" width="120" height="60" as="geometry" />
        </mxCell>
        <mxCell id="lLXELXfUWVYyEncKYgsI-121" value="" style="shape=mxgraph.signs.tech.video_camera;html=1;pointerEvents=1;fillColor=#000000;strokeColor=none;verticalLabelPosition=bottom;verticalAlign=top;align=center;" vertex="1" parent="1">
          <mxGeometry x="52" y="1010" width="98" height="40" as="geometry" />
        </mxCell>
        <mxCell id="lLXELXfUWVYyEncKYgsI-122" value="HLS PARALLEL&amp;nbsp;&lt;div&gt;VIDEO CAPTURE&lt;/div&gt;" style="rounded=0;whiteSpace=wrap;html=1;fillColor=#d5e8d4;strokeColor=#82b366;" vertex="1" parent="1">
          <mxGeometry x="260" y="1000" width="120" height="60" as="geometry" />
        </mxCell>
        <mxCell id="lLXELXfUWVYyEncKYgsI-123" value="HLS VIDEO CROP" style="rounded=0;whiteSpace=wrap;html=1;fillColor=#d5e8d4;strokeColor=#82b366;" vertex="1" parent="1">
          <mxGeometry x="448" y="1000" width="120" height="60" as="geometry" />
        </mxCell>
        <mxCell id="lLXELXfUWVYyEncKYgsI-124" value="HLS VIDEO BROADCASTER" style="rounded=0;whiteSpace=wrap;html=1;fillColor=#d5e8d4;strokeColor=#82b366;" vertex="1" parent="1">
          <mxGeometry x="650" y="1000" width="120" height="60" as="geometry" />
        </mxCell>
        <mxCell id="lLXELXfUWVYyEncKYgsI-125" value="PIPELINE 2&lt;div&gt;&lt;div&gt;VIDEO FRAMEBUFFER WRITE&lt;/div&gt;&lt;/div&gt;" style="rounded=0;whiteSpace=wrap;html=1;fillColor=#fff2cc;strokeColor=#d6b656;" vertex="1" parent="1">
          <mxGeometry x="880" y="850" width="130" height="60" as="geometry" />
        </mxCell>
        <mxCell id="lLXELXfUWVYyEncKYgsI-126" value="PIPELINE 2&lt;div&gt;VIDEO DMA&lt;/div&gt;" style="rounded=0;whiteSpace=wrap;html=1;fillColor=#d5e8d4;strokeColor=#82b366;" vertex="1" parent="1">
          <mxGeometry x="880" y="940" width="130" height="60" as="geometry" />
        </mxCell>
        <mxCell id="lLXELXfUWVYyEncKYgsI-127" value="PIPELINE 2&lt;div&gt;HLS RFC4175 PACKETIZER&lt;/div&gt;" style="rounded=0;whiteSpace=wrap;html=1;fillColor=#d5e8d4;strokeColor=#82b366;" vertex="1" parent="1">
          <mxGeometry x="880" y="1050" width="130" height="60" as="geometry" />
        </mxCell>
        <mxCell id="lLXELXfUWVYyEncKYgsI-128" value="PIPELINE 2&lt;div&gt;HD SDI&lt;/div&gt;&lt;div&gt;PACKETIZER&lt;/div&gt;" style="rounded=0;whiteSpace=wrap;html=1;fillColor=#d5e8d4;strokeColor=#82b366;" vertex="1" parent="1">
          <mxGeometry x="880" y="1150" width="130" height="60" as="geometry" />
        </mxCell>
        <mxCell id="lLXELXfUWVYyEncKYgsI-129" value="" style="strokeWidth=2;html=1;shape=stencil(rVXLbsMgEPwarhWGumqOEU2PvfTQM3FojRKDhWnS/n0xG6t+x8FIltDOmpmdZRGIsirnpUAEK14IRF8QIVultOVWauVg4gC35JDaPEN4gTDBGGJelSKzAJ65kXx/EpCprNFHcZEHe6WQKhdG2jpLdwhv3T/1R1mmlXIkTrbqZFp5R8alcnvxD5DhhxRkfq8xRKVTKIQVpoP+O3wDAJHXYKVkmdJ7gFLXUaN7S+njfqUkTGm3WmnhKa0WWnpIE0KUOWRqLCnb8+z4ZfS3OoyWV/J65AeJJl3os2jVjfFYi8atNxQnqVoUaWwGGkDR9xHCEaGMHsVTBCchHBHK6FFsIjiZ5/BDP5hdj04MPGWf2oiZmwBvwIziXVela+YxXd3TeYrxfty05rcN+uJReHE98Ac=);align=left;labelPosition=right;pointerEvents=1;fillStyle=auto;" vertex="1" parent="1">
          <mxGeometry x="800" y="870" width="50" height="340" as="geometry" />
        </mxCell>
        <mxCell id="sBRdFK5-tUxbkBPfUME3-1" value="640x512@25fps Yuv422 camera 1" style="rounded=0;whiteSpace=wrap;html=1;" vertex="1" parent="1">
          <mxGeometry x="1130" y="110" width="120" height="60" as="geometry" />
        </mxCell>
        <mxCell id="sBRdFK5-tUxbkBPfUME3-2" value="" style="shape=mxgraph.signs.tech.video_camera;html=1;pointerEvents=1;fillColor=#000000;strokeColor=none;verticalLabelPosition=bottom;verticalAlign=top;align=center;" vertex="1" parent="1">
          <mxGeometry x="1152" y="180" width="98" height="40" as="geometry" />
        </mxCell>
        <mxCell id="sBRdFK5-tUxbkBPfUME3-3" value="HLS PARALLEL&amp;nbsp;&lt;div&gt;VIDEO CAPTURE&lt;/div&gt;" style="rounded=0;whiteSpace=wrap;html=1;fillColor=#d5e8d4;strokeColor=#82b366;" vertex="1" parent="1">
          <mxGeometry x="1360" y="170" width="120" height="60" as="geometry" />
        </mxCell>
        <mxCell id="sBRdFK5-tUxbkBPfUME3-4" value="HLS VIDEO CROP" style="rounded=0;whiteSpace=wrap;html=1;fillColor=#d5e8d4;strokeColor=#82b366;" vertex="1" parent="1">
          <mxGeometry x="1548" y="170" width="120" height="60" as="geometry" />
        </mxCell>
        <mxCell id="sBRdFK5-tUxbkBPfUME3-5" value="HLS VIDEO BROADCASTER" style="rounded=0;whiteSpace=wrap;html=1;fillColor=#d5e8d4;strokeColor=#82b366;" vertex="1" parent="1">
          <mxGeometry x="1750" y="170" width="120" height="60" as="geometry" />
        </mxCell>
        <mxCell id="sBRdFK5-tUxbkBPfUME3-6" value="PIPELINE 3&lt;div&gt;VIDEO FRAMEBUFFER WRITE&lt;/div&gt;" style="rounded=0;whiteSpace=wrap;html=1;fillColor=#fff2cc;strokeColor=#d6b656;" vertex="1" parent="1">
          <mxGeometry x="1980" y="20" width="130" height="60" as="geometry" />
        </mxCell>
        <mxCell id="sBRdFK5-tUxbkBPfUME3-7" value="PIPELINE 3&lt;div&gt;VIDEO DMA&lt;/div&gt;" style="rounded=0;whiteSpace=wrap;html=1;fillColor=#d5e8d4;strokeColor=#82b366;" vertex="1" parent="1">
          <mxGeometry x="1980" y="110" width="130" height="60" as="geometry" />
        </mxCell>
        <mxCell id="sBRdFK5-tUxbkBPfUME3-8" value="PIPELINE 3&lt;div&gt;HLS RFC4175 PACKETIZER&lt;/div&gt;" style="rounded=0;whiteSpace=wrap;html=1;fillColor=#d5e8d4;strokeColor=#82b366;" vertex="1" parent="1">
          <mxGeometry x="1980" y="220" width="130" height="60" as="geometry" />
        </mxCell>
        <mxCell id="sBRdFK5-tUxbkBPfUME3-9" value="PIPELINE 3&lt;div&gt;HD SDI&lt;/div&gt;&lt;div&gt;PACKETIZER&lt;/div&gt;" style="rounded=0;whiteSpace=wrap;html=1;fillColor=#d5e8d4;strokeColor=#82b366;" vertex="1" parent="1">
          <mxGeometry x="1980" y="320" width="130" height="60" as="geometry" />
        </mxCell>
        <mxCell id="sBRdFK5-tUxbkBPfUME3-10" value="" style="strokeWidth=2;html=1;shape=stencil(rVXLbsMgEPwarhWGumqOEU2PvfTQM3FojRKDhWnS/n0xG6t+x8FIltDOmpmdZRGIsirnpUAEK14IRF8QIVultOVWauVg4gC35JDaPEN4gTDBGGJelSKzAJ65kXx/EpCprNFHcZEHe6WQKhdG2jpLdwhv3T/1R1mmlXIkTrbqZFp5R8alcnvxD5DhhxRkfq8xRKVTKIQVpoP+O3wDAJHXYKVkmdJ7gFLXUaN7S+njfqUkTGm3WmnhKa0WWnpIE0KUOWRqLCnb8+z4ZfS3OoyWV/J65AeJJl3os2jVjfFYi8atNxQnqVoUaWwGGkDR9xHCEaGMHsVTBCchHBHK6FFsIjiZ5/BDP5hdj04MPGWf2oiZmwBvwIziXVela+YxXd3TeYrxfty05rcN+uJReHE98Ac=);align=left;labelPosition=right;pointerEvents=1;fillStyle=auto;" vertex="1" parent="1">
          <mxGeometry x="1900" y="40" width="50" height="340" as="geometry" />
        </mxCell>
        <mxCell id="sBRdFK5-tUxbkBPfUME3-21" value="640x512@25fps Yuv422 camera 2" style="rounded=0;whiteSpace=wrap;html=1;" vertex="1" parent="1">
          <mxGeometry x="1130" y="530" width="120" height="60" as="geometry" />
        </mxCell>
        <mxCell id="sBRdFK5-tUxbkBPfUME3-22" value="" style="shape=mxgraph.signs.tech.video_camera;html=1;pointerEvents=1;fillColor=#000000;strokeColor=none;verticalLabelPosition=bottom;verticalAlign=top;align=center;" vertex="1" parent="1">
          <mxGeometry x="1152" y="600" width="98" height="40" as="geometry" />
        </mxCell>
        <mxCell id="sBRdFK5-tUxbkBPfUME3-23" value="HLS PARALLEL&amp;nbsp;&lt;div&gt;VIDEO CAPTURE&lt;/div&gt;" style="rounded=0;whiteSpace=wrap;html=1;fillColor=#d5e8d4;strokeColor=#82b366;" vertex="1" parent="1">
          <mxGeometry x="1360" y="590" width="120" height="60" as="geometry" />
        </mxCell>
        <mxCell id="sBRdFK5-tUxbkBPfUME3-24" value="HLS VIDEO CROP" style="rounded=0;whiteSpace=wrap;html=1;fillColor=#d5e8d4;strokeColor=#82b366;" vertex="1" parent="1">
          <mxGeometry x="1548" y="590" width="120" height="60" as="geometry" />
        </mxCell>
        <mxCell id="sBRdFK5-tUxbkBPfUME3-25" value="HLS VIDEO BROADCASTER" style="rounded=0;whiteSpace=wrap;html=1;fillColor=#d5e8d4;strokeColor=#82b366;" vertex="1" parent="1">
          <mxGeometry x="1750" y="590" width="120" height="60" as="geometry" />
        </mxCell>
        <mxCell id="sBRdFK5-tUxbkBPfUME3-26" value="PIPELINE 4&lt;div&gt;VIDEO FRAMEBUFFER WRITE&lt;/div&gt;" style="rounded=0;whiteSpace=wrap;html=1;fillColor=#fff2cc;strokeColor=#d6b656;" vertex="1" parent="1">
          <mxGeometry x="1980" y="440" width="130" height="60" as="geometry" />
        </mxCell>
        <mxCell id="sBRdFK5-tUxbkBPfUME3-27" value="PIPELINE 4&lt;div&gt;VIDEO DMA&lt;/div&gt;" style="rounded=0;whiteSpace=wrap;html=1;fillColor=#d5e8d4;strokeColor=#82b366;" vertex="1" parent="1">
          <mxGeometry x="1980" y="530" width="130" height="60" as="geometry" />
        </mxCell>
        <mxCell id="sBRdFK5-tUxbkBPfUME3-28" value="PIPELINE 4&lt;div&gt;HLS RFC4175 PACKETIZER&lt;/div&gt;" style="rounded=0;whiteSpace=wrap;html=1;fillColor=#d5e8d4;strokeColor=#82b366;" vertex="1" parent="1">
          <mxGeometry x="1980" y="640" width="130" height="60" as="geometry" />
        </mxCell>
        <mxCell id="sBRdFK5-tUxbkBPfUME3-29" value="PIPELINE 4&lt;div&gt;HD SDI&lt;/div&gt;&lt;div&gt;PACKETIZER&lt;/div&gt;" style="rounded=0;whiteSpace=wrap;html=1;fillColor=#d5e8d4;strokeColor=#82b366;" vertex="1" parent="1">
          <mxGeometry x="1980" y="740" width="130" height="60" as="geometry" />
        </mxCell>
        <mxCell id="sBRdFK5-tUxbkBPfUME3-30" value="" style="strokeWidth=2;html=1;shape=stencil(rVXLbsMgEPwarhWGumqOEU2PvfTQM3FojRKDhWnS/n0xG6t+x8FIltDOmpmdZRGIsirnpUAEK14IRF8QIVultOVWauVg4gC35JDaPEN4gTDBGGJelSKzAJ65kXx/EpCprNFHcZEHe6WQKhdG2jpLdwhv3T/1R1mmlXIkTrbqZFp5R8alcnvxD5DhhxRkfq8xRKVTKIQVpoP+O3wDAJHXYKVkmdJ7gFLXUaN7S+njfqUkTGm3WmnhKa0WWnpIE0KUOWRqLCnb8+z4ZfS3OoyWV/J65AeJJl3os2jVjfFYi8atNxQnqVoUaWwGGkDR9xHCEaGMHsVTBCchHBHK6FFsIjiZ5/BDP5hdj04MPGWf2oiZmwBvwIziXVela+YxXd3TeYrxfty05rcN+uJReHE98Ac=);align=left;labelPosition=right;pointerEvents=1;fillStyle=auto;" vertex="1" parent="1">
          <mxGeometry x="1900" y="460" width="50" height="340" as="geometry" />
        </mxCell>
        <mxCell id="sBRdFK5-tUxbkBPfUME3-31" value="" style="shape=mxgraph.signs.tech.video_camera;html=1;pointerEvents=1;fillColor=#000000;strokeColor=none;verticalLabelPosition=bottom;verticalAlign=top;align=center;" vertex="1" parent="1">
          <mxGeometry x="1152" y="1010" width="98" height="40" as="geometry" />
        </mxCell>
        <mxCell id="sBRdFK5-tUxbkBPfUME3-32" value="HLS PARALLEL&amp;nbsp;&lt;div&gt;VIDEO CAPTURE&lt;/div&gt;" style="rounded=0;whiteSpace=wrap;html=1;fillColor=#d5e8d4;strokeColor=#82b366;" vertex="1" parent="1">
          <mxGeometry x="1360" y="1000" width="120" height="60" as="geometry" />
        </mxCell>
        <mxCell id="sBRdFK5-tUxbkBPfUME3-33" value="HLS VIDEO CROP" style="rounded=0;whiteSpace=wrap;html=1;fillColor=#d5e8d4;strokeColor=#82b366;" vertex="1" parent="1">
          <mxGeometry x="1548" y="1000" width="120" height="60" as="geometry" />
        </mxCell>
        <mxCell id="sBRdFK5-tUxbkBPfUME3-34" value="HLS VIDEO BROADCASTER" style="rounded=0;whiteSpace=wrap;html=1;fillColor=#d5e8d4;strokeColor=#82b366;" vertex="1" parent="1">
          <mxGeometry x="1750" y="1000" width="120" height="60" as="geometry" />
        </mxCell>
        <mxCell id="sBRdFK5-tUxbkBPfUME3-35" value="PIPELINE 5&lt;div&gt;VIDEO&lt;/div&gt;&lt;div&gt;FRAMEBUFFER WRITE&lt;/div&gt;" style="rounded=0;whiteSpace=wrap;html=1;fillColor=#fff2cc;strokeColor=#d6b656;" vertex="1" parent="1">
          <mxGeometry x="1980" y="850" width="130" height="60" as="geometry" />
        </mxCell>
        <mxCell id="sBRdFK5-tUxbkBPfUME3-36" value="PIPELINE 5&lt;div&gt;VIDEO DMA&lt;/div&gt;" style="rounded=0;whiteSpace=wrap;html=1;fillColor=#d5e8d4;strokeColor=#82b366;" vertex="1" parent="1">
          <mxGeometry x="1980" y="940" width="130" height="60" as="geometry" />
        </mxCell>
        <mxCell id="sBRdFK5-tUxbkBPfUME3-37" value="PIPELINE 5&lt;div&gt;HLS RFC4175 PACKETIZER&lt;/div&gt;" style="rounded=0;whiteSpace=wrap;html=1;fillColor=#d5e8d4;strokeColor=#82b366;" vertex="1" parent="1">
          <mxGeometry x="1980" y="1050" width="130" height="60" as="geometry" />
        </mxCell>
        <mxCell id="sBRdFK5-tUxbkBPfUME3-38" value="PIPELINE 5&lt;div&gt;HD SDI&lt;/div&gt;&lt;div&gt;PACKETIZER&lt;/div&gt;" style="rounded=0;whiteSpace=wrap;html=1;fillColor=#d5e8d4;strokeColor=#82b366;" vertex="1" parent="1">
          <mxGeometry x="1980" y="1150" width="130" height="60" as="geometry" />
        </mxCell>
        <mxCell id="sBRdFK5-tUxbkBPfUME3-39" value="" style="strokeWidth=2;html=1;shape=stencil(rVXLbsMgEPwarhWGumqOEU2PvfTQM3FojRKDhWnS/n0xG6t+x8FIltDOmpmdZRGIsirnpUAEK14IRF8QIVultOVWauVg4gC35JDaPEN4gTDBGGJelSKzAJ65kXx/EpCprNFHcZEHe6WQKhdG2jpLdwhv3T/1R1mmlXIkTrbqZFp5R8alcnvxD5DhhxRkfq8xRKVTKIQVpoP+O3wDAJHXYKVkmdJ7gFLXUaN7S+njfqUkTGm3WmnhKa0WWnpIE0KUOWRqLCnb8+z4ZfS3OoyWV/J65AeJJl3os2jVjfFYi8atNxQnqVoUaWwGGkDR9xHCEaGMHsVTBCchHBHK6FFsIjiZ5/BDP5hdj04MPGWf2oiZmwBvwIziXVela+YxXd3TeYrxfty05rcN+uJReHE98Ac=);align=left;labelPosition=right;pointerEvents=1;fillStyle=auto;" vertex="1" parent="1">
          <mxGeometry x="1900" y="870" width="50" height="340" as="geometry" />
        </mxCell>
        <mxCell id="sBRdFK5-tUxbkBPfUME3-40" value="640x512@25fps Yuv422 camera 3" style="rounded=0;whiteSpace=wrap;html=1;" vertex="1" parent="1">
          <mxGeometry x="1141" y="940" width="120" height="60" as="geometry" />
        </mxCell>
      </root>
    </mxGraphModel>
  </diagram>
  <diagram id="EXZSbk6zOyZr9hE7xJdf" name="Page-2">
    <mxGraphModel grid="1" page="1" gridSize="10" guides="1" tooltips="1" connect="1" arrows="1" fold="1" pageScale="1" pageWidth="850" pageHeight="1100" math="0" shadow="0">
      <root>
        <mxCell id="0" />
        <mxCell id="1" parent="0" />
      </root>
    </mxGraphModel>
  </diagram>
</mxfile>
